ply
format ascii 1.0
comment Mini-Gland mesh format 1.0
element duct_node 28
property float x
property float y
property float z
property float radius
element duct_segment 27
property int node_in
property int node_out
property int seg_type
end_header
14.72 15.70 -83.94 4.0
9.96 15.51 -74.27 4.0
0.67 16.51 -63.60 4.0
-4.53 18.92 -54.65 4.0
-9.95 19.97 -51.83 4.0
-14.81 24.36 -46.70 4.0
-19.19 25.12 -40.88 4.0
-18.45 25.09 -36.61 4.0
-14.01 23.29 -31.79 4.0
-10.46 16.37 -28.74 4.0
-7.25 13.21 -25.09 4.0
-3.38 8.86 -20.81 3.2
-3.51 7.23 -15.21 2.4
-3.59 7.53 -10.72 1.6
-0.15 9.59 -10.54 0.8
0.53 15.56 -11.61 0.8
0.92 19.32 -12.22 0.8
-1.12 23.94 -7.38 0.8
-3.37 26.13 -5.99 0.8
-9.73 25.26 -1.87 0.8
-0.58 27.82 -5.50 0.8
4.92 28.67 -3.86 0.8
4.07 23.96 -14.14 0.8
8.60 25.09 -14.46 0.8
-0.36 5.42 -2.70 0.8
-0.11 3.29 3.00 0.8
-3.32 2.00 -14.50 0.8
-1.55 -3.52 -13.90 0.8
1 0 0
2 1 0
3 2 0
4 3 0
5 4 0
6 5 0
7 6 0
8 7 0
9 8 0
10 9 0
11 10 0
12 11 0
13 12 0
14 13 0
15 14 0
16 15 0
17 16 0
18 17 0
19 18 0
20 18 0
21 20 0
22 16 0
23 22 0
24 13 0
25 24 0
26 12 0
27 26 0
